<svg version="1" xmlns="http://www.w3.org/2000/svg" width="470.667" height="470.667" viewBox="0 0 353.000000 353.000000"><path d="M168.5 2.4C161.3 5 154.8 10.9 151 18c-5.1 9.6-4.9 23.1.6 50.5 3 14.4 3.8 21.6 3 24.8-.6 2.6-5 5.1-18.6 10.8-24.9 10.3-43.5 23.6-58 41.4-13.2 16.3-22.5 35.7-25.6 53.5-.9 4.9-1.7 6.5-4.9 9.7-9.3 9.3-9.1 24 .5 33 1.7 1.6 3.2 3.9 3.5 5.3.3 1.4.8 3.8 1 5.3 2.2 11.9 10.4 30.7 19.1 43.8 6.4 9.7 22.8 26.1 32.8 32.9 14.6 9.8 33 17.1 50.5 20.1 9.7 1.7 30.4 1.9 39.7.4 13.4-2.2 26.7-6.3 34.9-10.8 1.1-.6 4.4-2.3 7.4-3.9 9.5-5 18.3-11.8 28.1-21.7 12.8-12.9 22.2-27.5 28.5-44.1 1.9-5.1 1.7-4.4 4.6-16.3 1.1-4.8 2.5-8.7 3.1-8.7 2.2 0 8.4-8.5 9.3-13 1.1-5.2.7-11.8-1.1-15.5-.8-1.7-3.5-5.2-5.9-7.8-2.5-2.5-4.5-5.4-4.6-6.4-.3-8.4-8.9-30.7-16.2-42.3-16-25.5-40-44.2-74.9-58.4-3.6-1.5-7.4-3.6-8.3-4.6-2.3-2.5-2.1-7.5.9-22.5 1.4-7.2 2.8-14.8 3.2-17 .3-2.2 1-6 1.4-8.5 1.4-7.4.5-20.9-1.7-26.7-4.6-11.7-14.7-19.5-25.8-19.9-3.3-.1-7.4.3-9 1z"/></svg>